<svg width="31" height="20" viewBox="0 0 31 20" fill="none" xmlns="http://www.w3.org/2000/svg">
<path id="Ornament 37" fill-rule="evenodd" clip-rule="evenodd" d="M8.97957 19.8099C9.32136 19.5262 9.36094 19.0278 9.06798 18.6967L1.82641 10.5138C1.56477 10.2181 1.56477 9.78187 1.82641 9.48622L9.06798 1.30327C9.36094 0.972223 9.32136 0.47383 8.97957 0.190075C8.63778 -0.0936779 8.12321 -0.0553396 7.83025 0.275705L0.588684 8.45866C-0.196227 9.3456 -0.196229 10.6544 0.588683 11.5413L7.83025 19.7243C8.12321 20.0553 8.63778 20.0937 8.97957 19.8099ZM19.8475 19.8099C20.1892 19.5262 20.2288 19.0278 19.9359 18.6967L12.6943 10.5138C12.4327 10.2181 12.4327 9.78187 12.6943 9.48622L19.9359 1.30327C20.2288 0.972223 20.1892 0.47383 19.8475 0.190075C19.5057 -0.0936779 18.9911 -0.0553396 18.6981 0.275705L11.4566 8.45866C10.6717 9.3456 10.6717 10.6544 11.4566 11.5413L18.6981 19.7243C18.9911 20.0553 19.5057 20.0937 19.8475 19.8099ZM30.8038 18.6967C31.0967 19.0278 31.0571 19.5262 30.7153 19.8099C30.3736 20.0937 29.859 20.0553 29.566 19.7243L22.3245 11.5413C21.5395 10.6544 21.5396 9.3456 22.3245 8.45866L29.566 0.275705C29.859 -0.0553396 30.3736 -0.0936779 30.7153 0.190075C31.0571 0.47383 31.0967 0.972223 30.8038 1.30327L23.5622 9.48622C23.3006 9.78187 23.3006 10.2181 23.5622 10.5138L30.8038 18.6967Z" fill="url(#paint0_linear_3_86)"/>
<defs>
<linearGradient id="paint0_linear_3_86" x1="1.55663e-08" y1="9.29747" x2="28" y2="11" gradientUnits="userSpaceOnUse">
<stop stop-color="#75A5FF"/>
<stop offset="1" stop-color="#75A5FF" stop-opacity="0.5"/>
</linearGradient>
</defs>
</svg>
