<?xml version="1.0" encoding="utf-8"?>
<!-- Generator: Adobe Illustrator 27.3.1, SVG Export Plug-In . SVG Version: 6.00 Build 0)  -->
<svg version="1.1" id="Outline" xmlns="http://www.w3.org/2000/svg" xmlns:xlink="http://www.w3.org/1999/xlink" x="0px" y="0px"
	 viewBox="0 0 2500 2500" enable-background="new 0 0 2500 2500" xml:space="preserve">
<g>
	<path d="M400,400v1700h1700V400H400z M1930,740h-170V570h170V740z M1420,740V570h170v170H1420z M1250,570v170H570V570H1250z
		 M570,1930V910h1360v1020H570z"/>
	<path d="M1377.5,1250v-54.86816C1377.5,1084.77295,1287.72705,995,1177.36816,995
		c-102.51465,0-188.0542,76.86523-198.96973,178.79883L961.13281,1335H867.5v170h75.42297l-15.32532,143.10547
		C925.9375,1663.42041,913.07129,1675,897.63184,1675c-16.60156,0-30.13184-13.53027-30.13184-30.13184V1590h-170v54.86816
		C697.5,1755.22705,787.27295,1845,897.63184,1845c102.51465,0,188.0542-76.86523,198.96973-178.79883L1113.86719,1505H1207.5v-170
		h-75.42297l15.32532-143.10547c1.66016-15.31494,14.52637-26.89453,29.96582-26.89453
		c16.60156,0,30.13184,13.53027,30.13184,30.13184V1250H1377.5z"/>
	<polygon points="1657.40234,1359.90234 1547.5,1469.80469 1437.59766,1359.90234 1317.40234,1480.09766 1427.30469,1590 
		1317.40234,1699.90234 1437.59766,1820.09766 1547.5,1710.19531 1657.40234,1820.09766 1777.59766,1699.90234 1667.69531,1590 
		1777.59766,1480.09766 	"/>
</g>
</svg>
