<svg width="35" height="25" viewBox="0 0 31 20" fill="none" xmlns="http://www.w3.org/2000/svg">
<path id="Ornament 37" fill-rule="evenodd" clip-rule="evenodd" d="M22.0204 19.8099C21.6786 19.5262 21.6391 19.0278 21.932 18.6967L29.1736 10.5138C29.4352 10.2181 29.4352 9.78187 29.1736 9.48622L21.932 1.30327C21.6391 0.972223 21.6786 0.473829 22.0204 0.190075C22.3622 -0.0936775 22.8768 -0.0553398 23.1697 0.275705L30.4113 8.45866C31.1962 9.3456 31.1962 10.6544 30.4113 11.5413L23.1697 19.7243C22.8768 20.0553 22.3622 20.0937 22.0204 19.8099ZM11.1525 19.8099C10.8108 19.5262 10.7712 19.0278 11.0641 18.6967L18.3057 10.5138C18.5673 10.2181 18.5673 9.78187 18.3057 9.48622L11.0641 1.30327C10.7712 0.972223 10.8108 0.473829 11.1525 0.190075C11.4943 -0.0936775 12.0089 -0.0553398 12.3019 0.275705L19.5434 8.45866C20.3283 9.3456 20.3283 10.6544 19.5434 11.5413L12.3019 19.7243C12.0089 20.0553 11.4943 20.0937 11.1525 19.8099ZM0.196243 18.6967C-0.0967178 19.0278 -0.0571365 19.5262 0.284651 19.8099C0.62644 20.0937 1.14101 20.0553 1.43397 19.7243L8.67554 11.5413C9.46045 10.6544 9.46045 9.3456 8.67554 8.45866L1.43397 0.275705C1.14101 -0.0553398 0.62644 -0.0936775 0.284653 0.190075C-0.0571365 0.473829 -0.0967178 0.972223 0.196245 1.30327L7.43781 9.48622C7.69945 9.78187 7.69945 10.2181 7.43781 10.5138L0.196243 18.6967Z" fill="url(#paint0_linear_69_575)"/>
<defs>
<linearGradient id="paint0_linear_69_575" x1="31" y1="9.29747" x2="3" y2="11" gradientUnits="userSpaceOnUse">
<stop stop-color="#75A5FF"/>
<stop offset="1" stop-color="#75A5FF" stop-opacity="0.5"/>
</linearGradient>
</defs>
</svg>
